<svg xmlns="http://www.w3.org/2000/svg" width="280" height="280" viewBox="0 0 280 280">
  <rect x="0" y="0" width="280" height="280" rx="24" fill="#ffffff"/>
  <rect x="18" y="18" width="244" height="244" rx="18" fill="#f6f7f9" stroke="#d9dde3" stroke-width="4"/>
  <g fill="#111827" opacity="0.9">
    <rect x="40" y="40" width="64" height="64" rx="10"/>
    <rect x="176" y="40" width="64" height="64" rx="10"/>
    <rect x="40" y="176" width="64" height="64" rx="10"/>
  </g>
  <g fill="#111827" opacity="0.75">
    <rect x="124" y="56" width="16" height="16" rx="4"/>
    <rect x="124" y="84" width="16" height="16" rx="4"/>
    <rect x="152" y="56" width="16" height="16" rx="4"/>
    <rect x="152" y="84" width="16" height="16" rx="4"/>

    <rect x="124" y="124" width="16" height="16" rx="4"/>
    <rect x="152" y="124" width="16" height="16" rx="4"/>
    <rect x="180" y="124" width="16" height="16" rx="4"/>
    <rect x="124" y="152" width="16" height="16" rx="4"/>
    <rect x="152" y="152" width="16" height="16" rx="4"/>
    <rect x="96" y="152" width="16" height="16" rx="4"/>

    <rect x="124" y="196" width="16" height="16" rx="4"/>
    <rect x="152" y="196" width="16" height="16" rx="4"/>
    <rect x="180" y="196" width="16" height="16" rx="4"/>
    <rect x="208" y="196" width="16" height="16" rx="4"/>
  </g>
  <text x="140" y="266" text-anchor="middle" font-family="Arial, Helvetica, sans-serif" font-size="14" fill="#6b7280">
    WeChat QR
  </text>
</svg>
